<!DOCTYPE svg PUBLIC "-//W3C//DTD SVG 1.1//EN" "http://www.w3.org/Graphics/SVG/1.1/DTD/svg11.dtd">

<!-- Uploaded to: SVG Repo, www.svgrepo.com, Transformed by: SVG Repo Mixer Tools -->
<svg width="48px" height="48px" viewBox="-11.04 -11.04 46.08 46.08" fill="none" xmlns="http://www.w3.org/2000/svg" transform="matrix(1, 0, 0, -1, 0, 0)">

<g id="SVGRepo_bgCarrier" stroke-width="0">

<path transform="translate(-11.04, -11.04), scale(1.44)" d="M16,27.603215032640627C19.702523588911053,27.578424673872977,23.523872636284864,26.73528369418036,25.87880197606224,23.878081689948544C28.27352677406694,20.97259642681555,28.811638487210743,16.932345686798673,27.779409219526563,13.311426713471892C26.81027496188251,9.911836398543926,23.81836932802767,7.875060793730184,20.794691934595214,6.043719607840229C17.158597527831386,3.8414577338208145,13.283788700588222,0.5919699490145451,9.321589051551058,2.132136770442818C5.190863910286691,3.7378119949512536,3.5574264934060404,8.625937393187392,2.8832177318874646,13.006180042306882C2.273642697066477,16.966506157540582,3.2757110064020813,21.031050746470022,5.9539100379402505,24.011489407061287C8.454709138662707,26.7945082321724,12.258534730110684,27.62826612661206,16,27.603215032640627" fill="#f3deba" strokewidth="0"/>

</g>

<g id="SVGRepo_tracerCarrier" stroke-linecap="round" stroke-linejoin="round"/>

<g id="SVGRepo_iconCarrier"> <path d="M7 10H6.2C5.0799 10 4.51984 10 4.09202 10.218C3.71569 10.4097 3.40973 10.7157 3.21799 11.092C3 11.5198 3 12.0799 3 13.2V16.8C3 17.9201 3 18.4802 3.21799 18.908C3.40973 19.2843 3.71569 19.5903 4.09202 19.782C4.51984 20 5.0799 20 6.2 20H17.8C18.9201 20 19.4802 20 19.908 19.782C20.2843 19.5903 20.5903 19.2843 20.782 18.908C21 18.4802 21 17.9201 21 16.8V13.2C21 12.0799 21 11.5198 20.782 11.092C20.5903 10.7157 20.2843 10.4097 19.908 10.218C19.4802 10 18.9201 10 17.8 10H17M12 4V16M12 4L9 7M12 4L15 7" stroke="#675d50" stroke-width="2" stroke-linecap="round" stroke-linejoin="round"/> </g>

</svg>