<svg width="120" height="23" viewBox="0 0 120 23" fill="none" xmlns="http://www.w3.org/2000/svg">
<g clip-path="url(#clip0_96_62)">
<path d="M48.4397 10.7958C48.4397 13.91 45.5674 15.4671 42.1986 15.4671C40 15.4671 38.0142 14.9827 36.383 14.083C36.8085 13.4602 37.4468 12.4221 37.7305 11.7647C38.8652 12.2145 40.6738 12.7682 42.305 12.7682C43.9007 12.7682 45.1773 12.1107 45.1773 11.2457C45.1773 10.4844 44.8936 9.89619 42.3404 9.10035C39.078 8.09689 37.1986 7.09343 37.1986 4.39446C37.1986 1.55709 39.8936 0 43.2624 0C44.7163 0 46.4894 0.311419 47.6241 0.588235L47.4468 4.70588L45.0355 4.67128L45.0709 2.62976C44.6808 2.52595 44.1844 2.49135 43.4752 2.49135C41.6312 2.49135 40.3901 3.07959 40.3901 4.15225C40.3901 4.87889 41.0993 5.57093 43.6525 6.36678C46.9504 7.40484 48.4397 8.3737 48.4397 10.7958Z" fill="white"/>
<path fill-rule="evenodd" clip-rule="evenodd" d="M15.1064 13.3218H16.3475V15.1903H10.461V13.3218H11.6667L10.922 11.2457H4.96454L4.1844 13.3218H5.49645V15.1903H0V13.3218H1.31206L5.39007 2.00692H3.75887V0.103806H10.3191L15.1064 13.3218ZM10.0709 8.89273L7.9078 3.01038L5.78014 8.89273H10.0709Z" fill="white"/>
<path fill-rule="evenodd" clip-rule="evenodd" d="M36.8794 8.82353C36.8794 12.4914 33.7943 15.4671 30.0709 15.4671C28.227 15.4671 26.5957 14.7405 25.3546 13.5986C24.539 14.6021 23.0142 15.4325 21.1702 15.4325C18.9716 15.4325 16.6667 14.3945 16.6667 11.2111V4.9827H14.3617V2.62976H16.6667V0.0692062H19.8227V2.62976H23.3333V4.9827H19.8227V10.8997C19.8227 12.1799 20.6383 13.045 21.7731 13.045C22.5887 13.045 23.4752 12.6644 24.1135 12.0069C23.5816 11.0381 23.2624 9.9654 23.2624 8.82353C23.2624 5.88236 25.2128 3.3564 27.9787 2.49135C27.4113 3.3218 27.0213 5.19031 27.0213 6.22838C26.4894 6.95502 26.1348 7.82007 26.1348 8.82353C26.1348 11.0727 27.9078 12.9066 30.0709 12.9066C30.8511 12.9066 31.5957 12.6644 32.1986 12.2491C29.7518 11.2457 28.0496 8.85813 28.0496 6.12457C28.0496 4.63668 28.5461 3.2872 29.3617 2.17993C29.6099 2.14533 29.8227 2.14533 30.0709 2.14533C31.0284 2.14533 31.9149 2.35294 32.7305 2.66436C35.1773 3.70242 36.8794 6.05537 36.8794 8.82353ZM34.0071 8.82353C34.0071 6.92042 32.766 5.32872 31.1348 4.8789C30.9929 5.25952 30.922 5.67474 30.922 6.12457C30.922 7.99308 32.1631 9.58478 33.7943 10.0692C33.9362 9.68858 34.0071 9.27336 34.0071 8.82353Z" fill="white"/>
<path d="M76.5603 13.045C75.0355 14.7059 73.2979 15.5363 71.3121 15.5363C70.2482 15.5363 69.2908 15.3287 68.3688 14.8789C67.4823 14.4291 66.7021 13.8408 66.0638 13.1142C65.4255 12.3875 64.9291 11.5571 64.539 10.6228C64.1844 9.68858 63.9716 8.75432 63.9716 7.78547C63.9716 6.78201 64.1489 5.81315 64.5035 4.87889C64.8582 3.94464 65.3546 3.11419 65.9929 2.42214C66.6312 1.6955 67.3759 1.14187 68.2624 0.726643C69.1489 0.311418 70.1064 0.103806 71.1348 0.103806C71.9149 0.103806 72.6241 0.17301 73.227 0.34602C73.8652 0.51903 74.3972 0.726643 74.8936 1.03806C75.3901 1.31488 75.8156 1.6955 76.1702 2.07612C76.5248 2.49135 76.844 2.94118 77.0922 3.42561L76.1702 3.97924C75.6383 2.97578 74.9291 2.24913 74.078 1.79931C73.1915 1.34948 72.234 1.10727 71.1348 1.10727C70.2128 1.10727 69.3617 1.31488 68.617 1.6955C67.8723 2.07612 67.234 2.59516 66.7021 3.21799C66.1702 3.84083 65.7801 4.56747 65.4965 5.36332C65.2128 6.15917 65.0709 6.98962 65.0709 7.82007C65.0709 8.71972 65.2482 9.58477 65.5674 10.3806C65.8865 11.1765 66.3475 11.9031 66.9149 12.526C67.4823 13.1488 68.156 13.6332 68.9007 14.0138C69.6809 14.3945 70.4965 14.5675 71.383 14.5675C72.3404 14.5675 73.227 14.3599 74.1135 13.91C74.9645 13.4948 75.7801 12.8028 76.5957 11.8685V8.92733H73.0496V8.06228H77.5532V15.4325H76.5957V13.045H76.5603Z" fill="white"/>
<path d="M84.8582 5.22492C83.8298 5.25952 82.9433 5.53634 82.1631 6.12457C81.383 6.71281 80.8511 7.47405 80.5319 8.44291V15.4325H79.4326V4.25606H80.4965V6.98962C80.8865 6.19377 81.4184 5.57094 82.0567 5.05191C82.695 4.56748 83.4043 4.29066 84.1489 4.18685C84.2908 4.18685 84.4326 4.15225 84.539 4.15225C84.6454 4.15225 84.7518 4.15225 84.8227 4.15225V5.22492H84.8582Z" fill="white"/>
<path d="M90.1418 15.6401C89.3262 15.6401 88.5816 15.5017 87.9078 15.1903C87.234 14.8789 86.6312 14.4637 86.1347 13.9446C85.6383 13.4256 85.2482 12.8028 84.9645 12.1107C84.6809 11.4187 84.539 10.6574 84.539 9.89619C84.539 9.10034 84.6809 8.3737 84.9645 7.64706C85.2482 6.95502 85.6383 6.33218 86.1347 5.81315C86.6312 5.29412 87.234 4.87889 87.9078 4.56747C88.5816 4.25605 89.3262 4.11765 90.1064 4.11765C90.8865 4.11765 91.6312 4.25605 92.305 4.56747C92.9787 4.87889 93.5816 5.29412 94.078 5.81315C94.5745 6.33218 94.9645 6.95502 95.2837 7.64706C95.5674 8.3391 95.7092 9.10034 95.7092 9.89619C95.7092 10.6574 95.5674 11.4187 95.2837 12.1107C95 12.8028 94.6099 13.4256 94.1135 13.9446C93.617 14.4637 93.0142 14.8789 92.3404 15.1903C91.6667 15.4671 90.922 15.6401 90.1418 15.6401ZM85.6383 9.89619C85.6383 10.5536 85.7447 11.1765 85.9929 11.7647C86.2411 12.3529 86.5603 12.8374 86.9504 13.2872C87.3404 13.7024 87.8369 14.0484 88.3688 14.2907C88.9007 14.5329 89.5035 14.6713 90.1064 14.6713C90.7092 14.6713 91.3121 14.5329 91.844 14.2907C92.3759 14.0484 92.8723 13.7024 93.2624 13.2526C93.6879 12.8028 94.0071 12.2837 94.2199 11.7301C94.4681 11.1419 94.5745 10.519 94.5745 9.86159C94.5745 9.20415 94.4681 8.58131 94.2199 7.99308C93.9716 7.40484 93.6525 6.92041 93.2624 6.47059C92.8369 6.02076 92.3759 5.67474 91.844 5.43252C91.3121 5.19031 90.7447 5.0519 90.1064 5.0519C89.4681 5.0519 88.9007 5.19031 88.3688 5.43252C87.8369 5.67474 87.3404 6.05536 86.9504 6.47059C86.5603 6.92041 86.2411 7.43944 85.9929 8.02768C85.7447 8.61592 85.6383 9.23875 85.6383 9.89619Z" fill="white"/>
<path d="M100.851 15.6401C98.4043 15.6401 97.1986 13.9792 97.1986 10.692V4.25605H98.2979V10.5536C98.2979 13.2872 99.2553 14.6713 101.17 14.6713C101.667 14.6713 102.128 14.6021 102.589 14.4291C103.05 14.256 103.475 14.0484 103.865 13.737C104.255 13.4602 104.61 13.0796 104.894 12.6644C105.177 12.2491 105.426 11.7993 105.603 11.2803V4.25605H106.702V13.91C106.702 14.256 106.844 14.4637 107.163 14.4637V15.4325C107.092 15.4325 107.021 15.4671 106.95 15.4671C106.879 15.4671 106.844 15.4671 106.809 15.4671C106.525 15.4671 106.241 15.3633 106.028 15.1903C105.816 15.0173 105.674 14.7751 105.674 14.4637V12.8028C105.177 13.7024 104.504 14.3945 103.617 14.9135C102.801 15.3979 101.879 15.6401 100.851 15.6401Z" fill="white"/>
<path d="M114.752 15.6401C113.759 15.6401 112.908 15.3979 112.128 14.8789C111.348 14.3599 110.745 13.737 110.284 13.0104V20H109.184V4.25606H110.213V6.50519C110.674 5.77855 111.312 5.19032 112.057 4.74049C112.837 4.29066 113.652 4.04845 114.539 4.04845C115.319 4.04845 116.064 4.22146 116.738 4.53288C117.411 4.8789 117.979 5.29412 118.475 5.84775C118.972 6.40139 119.326 6.98962 119.61 7.71627C119.894 8.40831 120 9.13495 120 9.8616C120 10.6228 119.858 11.3841 119.61 12.0761C119.362 12.7682 119.007 13.391 118.546 13.91C118.085 14.4291 117.518 14.8443 116.879 15.1557C116.241 15.4671 115.532 15.6401 114.752 15.6401ZM114.504 14.6713C115.177 14.6713 115.78 14.5329 116.312 14.2561C116.844 13.9792 117.305 13.6332 117.695 13.1834C118.085 12.7336 118.369 12.2145 118.582 11.6263C118.794 11.0381 118.901 10.4498 118.901 9.8616C118.901 9.20416 118.794 8.61592 118.546 8.02769C118.298 7.43945 117.979 6.92042 117.553 6.50519C117.128 6.05537 116.631 5.70935 116.099 5.43253C115.532 5.15571 114.965 5.05191 114.326 5.05191C113.936 5.05191 113.511 5.12111 113.05 5.29412C112.589 5.46713 112.163 5.67474 111.773 5.95156C111.383 6.22838 111.028 6.5398 110.745 6.92042C110.461 7.26644 110.319 7.64706 110.248 8.06229V11.7301C110.426 12.1453 110.674 12.526 110.957 12.9066C111.241 13.2526 111.596 13.564 111.95 13.8408C112.305 14.1177 112.73 14.3253 113.156 14.4637C113.617 14.6021 114.043 14.6713 114.504 14.6713Z" fill="white"/>
<path d="M57.0571 0H55.9574V15.4671H57.0571V0Z" fill="white"/>
</g>
<defs>
<clipPath id="clip0_96_62">
<rect width="120" height="22.5" fill="white"/>
</clipPath>
</defs>
</svg>
