<!DOCTYPE svg PUBLIC "-//W3C//DTD SVG 1.1//EN" "http://www.w3.org/Graphics/SVG/1.1/DTD/svg11.dtd">

<!-- Uploaded to: SVG Repo, www.svgrepo.com, Transformed by: SVG Repo Mixer Tools -->
<svg fill="#675d50" version="1.1" id="Capa_1" xmlns="http://www.w3.org/2000/svg" xmlns:xlink="http://www.w3.org/1999/xlink" width="32px" height="32px" viewBox="-407 -407 1739.00 1739.00" xml:space="preserve">

<g id="SVGRepo_bgCarrier" stroke-width="0">

<path transform="translate(-407, -407), scale(54.34375)" d="M16,31.68389308771917C18.669081454167266,31.110533570155813,19.707742189806496,27.838499041340135,21.88131620362401,26.186738480054892C23.70956416242514,24.79740098549489,26.58959550788477,24.765353020222395,27.72821624985406,22.771288808967387C28.866833624873557,20.777230494244773,27.58841453712215,18.293623799429987,27.697995356151036,16C27.814337632232483,13.564852903408939,29.04570369250485,11.19364959100053,28.393583524298265,8.84456121602229C27.674754837615655,6.255173256850843,26.279768187220895,3.5650731172110883,23.89963639155031,2.317428408514809C21.526979694147986,1.0737020823292587,18.676483381495224,2.234850506633772,16,2.3479508459568024C13.44234778062049,2.4560297288230646,10.716690425577925,1.7300294727028436,8.476640436266155,2.969158992003747C6.227801941262691,4.213150053183218,5.231299495453348,6.815281113711409,3.9241055861120184,9.027979109436266C2.604796722835376,11.261184188386807,0.670412471124003,13.408453148365941,0.7784204206296366,15.999999999999996C0.8859019032055967,18.578914784084116,3.1846865141824288,20.418545179767158,4.491596587928589,22.644379807902226C5.787913958096516,24.852173710126888,6.439894469508014,27.48981991375406,8.453290838216025,29.071283698155362C10.583041322705359,30.744140227241243,13.352214163067602,32.2526779810031,16,31.68389308771917" fill="#f3deba" strokewidth="0"/>

</g>

<g id="SVGRepo_tracerCarrier" stroke-linecap="round" stroke-linejoin="round"/>

<g id="SVGRepo_iconCarrier"> <g> <g> <path d="M352.9,53.4H441.6c33.601,0,61.601,24,68,55.7H560.2C553.4,49.7,502.8,3.4,441.6,3.4H352.9 c-61.2,0-111.8,46.3-118.601,105.7H284.9C291.3,77.3,319.3,53.4,352.9,53.4z"/> <path d="M127.2,322.4c71.8,46.4,167.7,72,270.1,72c102.4,0,198.2-25.6,270.101-72C732,280.7,769.5,226.8,774.1,169.7 C756.8,148,730.2,134.1,700.2,134.1H561h-50H283.6h-50H94.4c-29.9,0-56.6,13.9-73.9,35.6C25.1,226.8,62.6,280.6,127.2,322.4z"/> <path d="M363.1,461.1c0,15.601,12.7,28.3,28.301,28.3H403.1c15.601,0,28.301-12.699,28.301-28.3v-22.6H363.1V461.1L363.1,461.1z"/> <path d="M94.4,617.201h419.5V553.5c0-7.699,3.1-15,8.6-20.4L618.2,439c5.399-5.3,12.6-8.2,20.1-8.2h156.2V243 c-4.2,8.6-9,17.1-14.5,25.5c-21.5,32.9-52.2,62.3-91,87.4c-60.3,39-135.8,64.4-217.6,74.1v8.399V461 c0,37.701-30.601,68.3-68.301,68.3H391.4c-37.7,0-68.301-30.6-68.301-68.3V438.4V430c-81.8-9.601-157.3-35.101-217.6-74.1 c-38.8-25.1-69.5-54.5-91-87.4C9,260.1,4.2,251.6,0,243v279.8C0,574.9,42.3,617.201,94.4,617.201z"/> <g> <path d="M659.6,453.6c-13.399,0-26.5,5.5-36,15l-69.1,69.602c-9.5,9.6-14.7,22.199-14.7,35.699v43.301v12.5v12.5V870.9 c0,2.4,0.2,4.801,0.5,7.1c3.4,24.6,24.601,43.6,50.2,43.6h283.8c27.9,0,50.7-22.699,50.7-50.699V504.201 c0-24.5-17.4-44.901-40.5-49.601c-3.3-0.7-6.7-1-10.1-1h-54.9H807h-12.5H659.6L659.6,453.6z M819.5,503.6h54.8 c0.4,0,0.7,0.301,0.7,0.701V871c0,0.1,0,0.1,0,0.201c-0.1,0.299-0.3,0.5-0.6,0.5c0,0,0,0-0.101,0H590.5 c-0.4,0-0.7-0.301-0.7-0.701V642.201v-12.5v-12.5v-33h36.7c22.9,0,41.5-18.602,41.5-41.5V503.6h126.5H807H819.5L819.5,503.6z"/> <path d="M750,617.301H641.1c-9.199,0-17.199,5-21.6,12.4c-2.2,3.699-3.4,7.898-3.4,12.5v0.1c0,13.799,11.2,25,25,25h182.7 c13.8,0,25-11.201,25-25c0-13.801-11.2-25-25-25h-50.7H750z"/> <path d="M823.8,774.801H641.1c-13.8,0-25,11.199-25,25c0,13.799,11.2,25,25,25h182.7c13.8,0,25-11.201,25-25 C848.8,786,837.6,774.801,823.8,774.801z"/> <path d="M823.8,696.1H641.1c-13.8,0-25,11.201-25,25c0,13.801,11.2,25,25,25h182.7c13.8,0,25-11.199,25-25 C848.8,707.301,837.6,696.1,823.8,696.1z"/> </g> </g> </g> </g>

</svg>