<svg version="1.1" id="Layer_1" xmlns="http://www.w3.org/2000/svg" xmlns:xlink="http://www.w3.org/1999/xlink" x="0px" y="0px"
	 width="100%" viewBox="0 0 784 788" enable-background="new 0 0 784 788" xml:space="preserve">
<path fill="#E5E5E5" opacity="1.000000" stroke="none" 
	d="
M210.268204,788.735596 
	C141.677322,789.000000 73.354591,788.969543 5.032128,789.091614 
	C1.679105,789.097595 0.900479,788.522522 0.901920,785.033142 
	C1.009225,525.073730 1.012058,265.114288 0.884299,5.154891 
	C0.882397,1.285142 2.000824,0.924752 5.343863,0.925799 
	C263.803528,1.006738 522.263184,1.008645 780.722839,0.909775 
	C784.252930,0.908425 785.103638,1.539781 785.102051,5.221638 
	C784.989868,265.014404 784.988403,524.807251 785.107666,784.599976 
	C785.109497,788.572083 783.965820,789.088989 780.401245,789.083557 
	C707.246765,788.972351 634.091980,789.000000 560.468628,789.000000 
	C558.778564,787.832520 557.960754,786.408447 557.214355,784.901733 
	C524.867554,719.602356 493.074707,654.028870 460.294617,588.943420 
	C459.114777,586.600830 456.823059,584.109131 459.811005,581.022217 
	C472.088989,579.371399 484.021790,580.096313 496.369873,580.497070 
	C500.817017,582.600403 504.371460,585.360535 508.114410,587.819763 
	C535.652527,605.912964 565.783813,615.689514 598.810791,616.455139 
	C604.479309,616.586609 610.132629,616.483948 615.784668,616.324646 
	C634.381165,615.800659 644.021118,601.881042 637.499756,584.466248 
	C631.192566,567.623169 623.586487,551.296509 616.873108,534.609131 
	C614.114990,527.753113 614.945618,526.227600 622.464905,526.456665 
	C634.751221,526.830994 646.680603,525.305054 658.383789,521.508301 
	C670.981567,517.421387 674.049744,508.410919 665.996460,497.743042 
	C649.239014,475.544952 632.040833,453.684540 615.082336,431.640472 
	C612.486389,428.266052 609.061462,425.331848 608.362549,420.402893 
	C609.591492,417.716766 611.987427,417.092468 613.997986,416.017853 
	C625.532837,409.852295 632.943298,400.671234 635.528992,387.653839 
	C640.324158,363.513947 621.795776,340.260284 597.177856,339.588898 
	C593.804138,339.496887 590.106873,340.589020 587.027283,337.292664 
	C586.185669,335.336761 586.075439,333.675812 586.071838,332.014587 
	C586.019104,307.939484 586.001648,283.864349 586.078308,259.789215 
	C586.081482,258.792694 586.184509,257.800079 586.422363,256.385193 
	C586.687317,255.166611 586.926819,254.387161 586.868958,253.186325 
	C585.846497,237.793976 582.485962,223.399307 574.330994,210.602509 
	C560.685303,189.189423 541.221497,176.224075 516.016052,172.567947 
	C509.666687,171.646942 506.182709,169.120804 503.743469,163.016586 
	C490.951294,131.004562 468.500671,108.971092 435.236755,98.604401 
	C426.906097,96.008148 418.279419,95.084633 409.623260,94.643677 
	C398.650665,94.084717 391.993652,103.093437 396.213623,112.725639 
	C396.945557,114.396294 397.440674,116.197807 396.742126,118.444611 
	C396.391937,119.005089 396.206909,119.201714 395.647766,119.563919 
	C392.638733,120.191727 390.401855,118.901848 388.071899,118.065140 
	C348.021362,103.682518 309.121063,105.554665 270.995331,125.213562 
	C256.796661,132.534851 259.093109,148.379532 267.617889,155.395981 
	C270.965088,158.150940 274.089569,161.155853 277.395142,163.957672 
	C279.154419,165.448807 281.665955,167.065247 280.880890,169.550522 
	C280.046051,172.193390 277.001495,171.691574 274.765381,171.657455 
	C265.401154,171.514603 256.168427,172.052658 247.025803,174.476044 
	C211.631912,183.857758 185.782410,217.101425 185.723495,253.673737 
	C185.682968,278.837036 185.723831,304.000458 185.703979,329.163818 
	C185.701889,331.817841 185.967621,334.506958 184.871445,337.450500 
	C182.258835,340.316345 179.092743,339.583771 176.189713,339.569885 
	C161.798630,339.501038 150.470230,345.329346 142.074646,356.954926 
	C128.910843,375.183167 134.991119,403.149536 154.519531,414.493286 
	C157.344421,416.134186 160.781448,416.983704 162.591721,420.569122 
	C162.433517,424.009247 160.262589,426.019379 158.565247,428.224396 
	C141.493912,450.402283 124.352699,472.526337 107.263527,494.690521 
	C105.941460,496.405212 104.589485,498.102814 103.413918,499.923309 
	C98.001770,508.304626 101.041885,517.543396 110.435043,520.921631 
	C122.008690,525.084167 133.953094,526.763367 146.268906,526.442932 
	C156.510254,526.176392 157.171082,527.371277 153.173874,536.886536 
	C146.786453,552.091736 140.382187,567.289795 134.031708,582.510559 
	C131.713730,588.066223 130.842697,593.756775 132.245682,599.609375 
	C134.606079,609.455811 142.285141,615.631348 152.839615,616.293518 
	C193.430542,618.840210 230.791107,609.175659 264.706085,586.577026 
	C267.338684,584.822815 270.033478,583.171875 273.102448,581.313965 
	C278.125916,579.489929 282.952393,580.104736 287.703217,580.132751 
	C295.113373,580.176392 302.539185,579.619141 310.337769,580.644348 
	C314.308868,582.762329 312.413025,585.392090 311.327545,587.647949 
	C306.922180,596.803162 302.557831,605.993958 297.700684,614.910645 
	C283.271057,641.400513 270.938629,668.928345 257.335052,695.826111 
	C242.828568,724.508972 229.247498,753.652771 214.581131,782.258545 
	C213.451447,784.461975 212.671158,786.913574 210.268204,788.735596 
z"/>
<path fill="#424242" opacity="1.000000" stroke="none" 
	d="
M458.094879,581.859863 
	C471.760834,608.802063 485.592957,635.119751 498.398987,661.927673 
	C518.607178,704.231201 539.809265,746.042480 560.091675,788.630493 
	C443.645782,789.000000 327.291534,789.000000 210.468658,789.000000 
	C217.292816,774.100464 224.579941,759.198059 231.879623,744.301880 
	C247.273376,712.888733 262.545776,681.415222 278.114410,650.089050 
	C289.294128,627.593872 300.873230,605.297241 312.439941,582.590698 
	C314.967377,579.303162 318.343811,580.059875 321.393799,580.054443 
	C356.811188,579.991150 392.228699,580.016296 427.646179,580.015869 
	C435.295013,580.015808 442.943939,579.989258 450.592621,580.032288 
	C453.075195,580.046265 455.614471,579.889526 458.094879,581.859863 
z"/>
<path fill="#FEC6B7" opacity="1.000000" stroke="none" 
	d="
M458.897614,582.201111 
	C410.076996,582.242737 361.765137,582.220947 313.029480,582.234253 
	C299.671692,582.119568 286.731506,581.362854 273.422058,582.805054 
	C244.069489,585.807251 221.107147,574.246216 202.644501,552.885254 
	C188.302261,536.291626 182.495956,516.340149 182.301880,494.690399 
	C182.107819,473.043884 182.275864,451.394379 182.247284,429.746246 
	C182.238892,423.390747 182.184799,423.566010 176.133514,423.279968 
	C171.668961,423.068970 167.140808,422.938568 162.485535,421.181274 
	C158.021927,417.051849 152.325684,415.714966 148.088608,411.812225 
	C140.186630,404.533875 135.435135,395.965973 133.918793,385.263275 
	C130.651749,362.203705 145.885025,343.355377 167.019302,338.551086 
	C172.275925,337.356171 177.627930,338.214844 183.392456,338.055511 
	C188.214279,337.737244 192.450989,336.571136 197.176147,336.174164 
	C199.233246,336.663269 200.552444,337.706482 201.691559,338.920013 
	C205.422287,342.894348 210.070267,344.920410 215.413330,345.267517 
	C219.588623,345.538757 220.924515,347.352448 220.886612,351.659912 
	C220.769592,364.956635 219.492996,378.317780 221.794174,391.544556 
	C227.553146,424.646179 255.146164,450.558624 288.308472,454.154510 
	C326.231903,458.266663 361.362427,433.595947 370.700806,396.293762 
	C373.512970,385.060730 384.020233,379.960083 394.714264,384.680084 
	C399.224274,386.670654 402.179962,389.780365 403.273224,394.910126 
	C407.111389,412.918976 416.683990,427.519073 431.243378,438.561157 
	C454.391357,456.116974 480.036835,459.590698 506.679993,448.497681 
	C532.530823,437.734558 547.761169,417.602081 552.808533,389.939514 
	C553.290100,387.300262 553.350525,384.644562 553.354553,381.977478 
	C553.369751,371.984283 553.316589,361.991058 553.381958,351.997894 
	C553.403259,348.739136 554.087708,345.900146 558.003662,345.482178 
	C564.580566,344.780182 569.940796,341.579559 575.252319,337.330566 
	C579.681885,336.515350 583.581116,338.216614 587.991577,338.030762 
	C597.922363,337.652710 607.312561,338.087555 615.938721,342.995880 
	C629.996094,350.994598 637.361267,363.373230 637.799805,379.186523 
	C638.235596,394.904633 631.485107,407.423676 617.672485,415.698303 
	C614.955688,417.325806 612.229492,418.885345 608.856323,420.039429 
	C604.733765,423.717926 599.903320,423.356598 595.335815,423.553131 
	C589.872681,423.788177 589.782410,423.589539 589.770203,429.006256 
	C589.721069,450.811707 589.868713,472.618073 589.718689,494.422668 
	C589.541260,520.209106 581.458923,542.936707 562.160034,560.657532 
	C546.555237,574.986450 527.964539,582.851318 506.628143,583.728882 
	C503.962708,583.838501 501.286407,583.825195 498.459900,582.299072 
	C485.193054,582.112366 472.299683,582.125061 458.897614,582.201111 
z"/>
<path fill="#672D2D" opacity="1.000000" stroke="none" 
	d="
M588.293945,337.547729 
	C586.853882,341.661102 584.135254,338.968536 582.019836,339.093597 
	C580.296326,339.195557 578.525818,338.500671 576.394470,338.040161 
	C575.251770,335.768646 576.627502,334.075897 577.332764,332.293640 
	C582.668457,318.810333 573.364868,301.239258 556.626465,302.589111 
	C554.184937,302.785980 551.647156,302.883423 548.987671,301.519836 
	C546.776428,298.600952 547.324402,295.505615 547.383179,292.567657 
	C547.570679,283.194092 546.997498,273.966858 544.080505,264.941833 
	C535.392517,238.061493 510.574127,219.799377 482.301544,219.663391 
	C476.140808,219.633759 469.972076,219.845978 463.821472,219.596359 
	C459.381348,219.416183 456.549255,220.942810 453.976898,224.753677 
	C438.869141,247.135681 418.826416,263.283813 392.786072,271.277496 
	C361.069794,281.013550 330.911804,277.209869 302.585083,259.911957 
	C289.689453,252.037155 289.203308,240.566574 301.149323,231.334244 
	C306.282806,227.366898 311.662292,223.732483 317.525055,219.535446 
	C303.874786,220.206223 290.793610,218.524231 277.810364,220.583542 
	C246.349609,225.573669 223.123917,252.664963 222.627670,284.644073 
	C222.545502,289.938599 223.419067,295.298309 221.640869,300.858398 
	C219.793503,302.642059 217.751678,302.504059 215.784592,302.661163 
	C201.188385,303.826904 192.723053,315.718048 196.324783,329.962738 
	C196.844757,332.019165 198.060196,333.951385 197.287994,336.530823 
	C192.858780,338.337708 188.727676,340.312561 183.967468,338.378265 
	C183.900024,311.233368 184.024551,284.415192 183.972794,257.597412 
	C183.935822,238.434723 188.777512,220.755066 200.182312,205.273697 
	C217.003998,182.439255 239.855865,170.832809 268.190521,170.044174 
	C272.312073,169.929459 276.439575,170.028259 281.956512,170.028259 
	C276.763184,165.490128 272.569183,161.672852 268.213470,158.049927 
	C258.380096,149.870911 256.070435,139.677689 261.987518,130.458679 
	C263.773926,127.675446 266.368958,125.934029 269.138275,124.444908 
	C308.790283,103.123001 349.548706,101.729614 391.253845,117.762146 
	C392.494537,118.239090 393.747589,118.683792 395.348816,119.220100 
	C396.058105,119.458992 396.290649,119.364967 396.478088,118.740952 
	C395.642273,115.516083 394.363586,112.581505 393.838867,109.517807 
	C392.240356,100.184669 398.375183,92.989937 407.789368,93.189034 
	C437.126129,93.809479 461.868011,104.867920 482.196045,126.031120 
	C493.682312,137.989319 501.757019,151.935867 507.142181,167.517120 
	C507.770111,169.333954 508.636871,170.016388 510.644379,170.212784 
	C529.778992,172.084579 546.728210,179.078903 560.939148,192.227280 
	C575.337585,205.549103 584.131714,221.880798 586.988403,241.322189 
	C587.518066,244.927185 587.696960,248.583725 588.144836,252.663757 
	C588.251953,253.111023 588.392090,253.506180 588.376953,253.715271 
	C588.314819,281.643372 588.267822,309.362427 588.293945,337.547729 
z"/>
<path fill="#672D2D" opacity="1.000000" stroke="none" 
	d="
M162.034286,421.289429 
	C163.295822,420.008026 164.451340,420.332581 165.830841,420.589661 
	C170.219711,421.407654 174.681778,422.409912 179.147430,421.396729 
	C182.985840,420.525848 184.298904,421.435822 184.261780,425.682770 
	C184.056702,449.148743 183.941589,472.620056 184.215302,496.084625 
	C184.635696,532.122314 201.002258,558.482300 233.304367,574.587646 
	C245.557800,580.697083 258.887024,582.372925 272.745575,582.634521 
	C250.157410,599.223511 225.189285,610.602783 197.414627,615.579102 
	C182.435150,618.262939 167.350403,619.037781 152.250443,617.767273 
	C134.349472,616.261169 125.117279,599.300903 132.380051,582.590942 
	C139.789703,565.543091 146.870407,548.352234 154.067673,531.212402 
	C154.438477,530.329407 154.551468,529.338135 154.881439,528.005920 
	C143.590332,528.423706 132.642548,528.325195 121.921173,525.669678 
	C117.403572,524.550781 112.855309,523.445557 108.478546,521.890625 
	C99.089127,518.554993 96.233574,506.858887 102.701591,498.336884 
	C111.215988,487.118591 119.858360,475.997223 128.470505,464.853363 
	C139.612564,450.435730 150.779099,436.037018 162.034286,421.289429 
z"/>
<path fill="#672D2D" opacity="1.000000" stroke="none" 
	d="
M498.216064,582.399902 
	C530.515137,583.063599 556.263916,570.623047 574.394958,543.511047 
	C583.588135,529.764282 587.729919,514.288025 587.807617,497.799042 
	C587.920654,473.814545 587.920166,449.828522 587.751770,425.844696 
	C587.724854,422.023102 588.634338,420.937836 592.471985,421.664490 
	C597.621277,422.639496 602.713501,421.358643 608.121826,420.211121 
	C618.162720,432.857025 627.796265,445.567200 637.515015,458.211823 
	C647.340454,470.995331 657.306580,483.670898 667.106995,496.473480 
	C676.288879,508.468079 672.460876,518.875854 658.111389,523.296631 
	C644.424133,527.513367 630.537903,528.716675 615.779053,527.913330 
	C621.568359,541.761047 627.256104,554.953430 632.592834,568.286316 
	C635.776733,576.240784 640.691284,583.708313 641.095093,592.538940 
	C641.746338,606.784302 632.937195,616.828369 618.614746,617.817078 
	C574.815857,620.840698 535.105042,609.264038 499.439758,583.713135 
	C499.038910,583.425964 498.708832,583.040039 498.216064,582.399902 
z"/>
<path fill="#FEC6B7" opacity="1.000000" stroke="none" 
	d="
M588.474060,253.836670 
	C588.361816,253.924347 588.187317,253.532379 588.219604,253.321701 
	C588.578674,253.221603 588.690125,253.434265 588.474060,253.836670 
z"/>
<path fill="#454544" opacity="1.000000" stroke="none" 
	d="
M548.479736,300.558899 
	C551.628967,300.894165 554.453735,301.079926 557.265015,300.957306 
	C565.819702,300.584198 572.533630,303.935547 576.845947,311.239594 
	C581.957642,319.897430 582.121338,328.729340 576.173950,337.614777 
	C571.167847,343.400513 565.182861,346.739532 557.802612,346.876709 
	C554.270325,346.942413 554.914124,348.955750 554.948242,351.145874 
	C555.163269,364.957123 556.120239,378.792419 553.992432,392.546326 
	C549.271545,423.061707 521.037903,450.651093 490.499420,455.089874 
	C464.705322,458.839081 442.256409,452.031555 423.477539,434.120392 
	C412.552460,423.700104 405.150787,410.972717 401.810486,396.029175 
	C399.647552,386.352875 390.138672,381.759491 380.774750,385.682007 
	C376.477844,387.481995 373.726196,390.112610 372.537842,395.269196 
	C360.315735,448.303711 300.707306,473.099182 254.963425,443.804810 
	C232.574158,429.466766 220.243912,408.327118 219.119904,381.410065 
	C218.682617,370.938293 218.450607,360.414398 219.457123,349.944702 
	C219.668228,347.748657 219.265900,346.987732 216.996689,346.956329 
	C208.979492,346.845245 202.663925,343.253357 197.370056,336.981812 
	C195.439224,332.542786 194.106033,328.304565 193.835373,323.527588 
	C193.124542,310.981964 205.349487,300.314270 216.296982,300.970245 
	C217.612564,301.049042 218.939285,300.941986 220.724854,300.884857 
	C223.063873,299.010468 225.475388,299.220947 227.780701,299.215118 
	C259.412781,299.134949 291.046234,298.989777 322.676666,299.253174 
	C348.886963,299.471405 372.859863,321.825989 375.717529,348.166351 
	C377.283997,362.604919 375.913574,359.927460 389.163513,360.160492 
	C399.114227,360.335510 397.906372,360.170898 398.265778,351.726318 
	C399.484406,323.092865 424.236786,299.298248 452.937103,299.210266 
	C482.237518,299.120453 511.538422,299.138184 540.838989,299.207550 
	C543.311340,299.213409 545.861755,298.894684 548.479736,300.558899 
z"/>
<path fill="#EE9583" opacity="1.000000" stroke="none" 
	d="
M368.209961,455.542480 
	C365.677826,450.244232 365.750214,445.336792 367.959747,440.303253 
	C372.457642,430.056610 378.129761,420.522644 384.799133,411.552704 
	C386.416290,409.377716 387.379303,408.648346 389.435028,411.463348 
	C395.436188,419.681183 400.314087,428.518005 405.333038,437.339050 
	C411.858337,448.807526 404.615356,462.085449 395.554230,466.600922 
	C385.947021,471.388458 373.902618,466.580994 368.209961,455.542480 
z"/>
<path fill="#EE9583" opacity="1.000000" stroke="none" 
	d="
M343.231995,487.782349 
	C340.193054,484.888458 337.674164,482.029602 335.796570,478.648254 
	C333.314941,474.179016 334.073914,469.657593 337.735504,467.183289 
	C341.123566,464.893860 345.260040,465.745392 348.560944,470.150421 
	C353.440460,476.662048 359.302307,481.913849 366.480286,485.666962 
	C377.056274,491.196838 388.461456,491.677338 400.007690,490.724365 
	C405.692871,490.255127 409.337585,492.350555 409.983704,497.058350 
	C410.666199,502.031158 407.931305,505.264343 402.336273,506.021179 
	C379.964050,509.047455 360.294647,503.210938 343.231995,487.782349 
z"/>
<path fill="#FEC5B6" opacity="1.000000" stroke="none" 
	d="
M548.867859,300.395660 
	C517.993835,300.811981 487.177155,300.698090 456.360840,300.762085 
	C433.076263,300.810425 415.850159,311.133484 405.177002,331.911530 
	C401.228729,339.597931 399.550201,347.987000 399.954041,356.571808 
	C400.173157,361.229950 398.519073,362.232147 394.299622,361.944519 
	C389.158020,361.594025 383.966888,361.692810 378.811615,361.922028 
	C375.574341,362.066010 374.521118,361.053772 374.505157,357.723358 
	C374.457703,347.800415 372.807373,338.190918 367.767761,329.397614 
	C356.642029,309.984894 339.719452,300.748871 317.559021,300.746704 
	C285.741119,300.743591 253.923218,300.804626 221.647095,300.843475 
	C220.628159,285.471344 220.594772,270.229797 227.879227,255.958801 
	C239.503952,233.184814 257.949768,220.243042 283.344788,218.236786 
	C295.920502,217.243271 308.639526,218.064148 321.844086,218.064148 
	C317.726074,222.517502 312.503235,224.996628 308.185272,228.594482 
	C305.778015,230.600281 303.016937,232.174866 300.491608,234.046707 
	C292.157715,240.224014 292.230164,250.649826 300.776062,256.687592 
	C312.756104,265.151611 326.113983,270.524933 340.518829,272.949982 
	C385.648102,280.547485 430.473236,260.015198 454.494019,220.942810 
	C455.465363,219.362854 456.048187,217.741104 458.424316,217.813858 
	C471.704865,218.220520 485.034943,216.904434 498.224457,219.902176 
	C525.519226,226.105774 548.023621,253.000488 548.886108,280.955536 
	C549.081177,287.278717 548.921631,293.612793 548.867859,300.395660 
z"/>
<path fill="#E5E5E5" opacity="1.000000" stroke="none" 
	d="
M396.352173,118.700195 
	C396.860718,119.137657 397.382263,119.875191 395.855835,119.516647 
	C395.844543,119.161339 395.986359,119.026009 396.352173,118.700195 
z"/>
<path fill="#ED9583" opacity="1.000000" stroke="none" 
	d="
M413.356506,381.514282 
	C412.057343,365.844360 409.992615,350.242981 417.515625,335.797058 
	C425.421051,320.616882 438.758453,313.550232 455.387909,313.308380 
	C472.345093,313.061768 489.334961,312.382812 506.290009,313.909912 
	C523.918945,315.497681 540.443542,332.042053 542.100342,349.567719 
	C543.074829,359.876373 542.904236,370.164886 542.335999,380.832672 
	C540.624634,382.407166 538.882629,382.907501 537.002502,382.907288 
	C522.015991,382.905670 507.027863,383.271210 491.554077,382.691650 
	C476.121246,383.379852 461.168976,382.849976 446.221313,382.949982 
	C439.248413,382.996582 432.268341,383.236572 424.813538,382.712097 
	C420.770325,382.809052 417.160675,383.580688 413.356506,381.514282 
z"/>
<path fill="#ED9583" opacity="1.000000" stroke="none" 
	d="
M232.490906,381.569427 
	C231.893600,368.026825 230.084595,354.679169 234.066895,341.658417 
	C238.555695,326.981598 253.254410,315.045959 268.630493,313.936035 
	C287.717560,312.558167 306.840149,312.520142 325.923859,314.007721 
	C342.810791,315.324066 359.065430,331.583771 361.136810,348.500854 
	C362.437866,359.126556 361.823914,369.756317 361.685364,380.866760 
	C358.088745,383.679688 354.238617,382.778107 349.995605,382.639160 
	C336.950562,383.381042 324.373901,382.890808 311.803070,382.939362 
	C302.873016,382.973785 293.935364,383.304047 284.520447,382.687622 
	C268.256104,383.329834 252.474274,382.892090 236.694794,382.885773 
	C235.360901,382.885223 234.048981,382.608673 232.490906,381.569427 
z"/>
<path fill="#FEFEFE" opacity="1.000000" stroke="none" 
	d="
M412.850006,381.657349 
	C416.393066,381.270325 419.834198,381.301239 423.746338,381.346069 
	C426.407928,384.352417 425.994812,388.031372 426.778992,391.381958 
	C429.667694,403.724335 437.239746,411.595062 449.270660,415.107910 
	C466.048767,420.006866 484.197815,409.197174 488.251099,392.156189 
	C489.058868,388.760071 488.926270,385.191193 490.520264,381.633423 
	C507.572937,381.325043 524.363159,381.289948 541.632324,381.223206 
	C542.610168,392.763794 538.775330,403.126709 532.831055,412.740967 
	C513.907104,443.348572 473.403381,453.023804 443.236389,433.620941 
	C424.717377,421.709900 413.764221,404.665955 412.850006,381.657349 
z"/>
<path fill="#FEFEFE" opacity="1.000000" stroke="none" 
	d="
M349.821472,381.580139 
	C353.642639,381.337799 357.172150,381.342865 361.133179,381.345642 
	C361.271179,398.371002 354.367157,412.633545 342.605560,424.483459 
	C321.202271,446.047607 287.721588,450.022064 262.398285,433.605591 
	C243.937988,421.638214 232.976715,404.656067 232.010712,381.688599 
	C249.049301,381.306488 266.006836,381.336151 283.425598,381.349365 
	C286.025421,383.079956 285.503357,385.560425 285.615906,387.828796 
	C286.413818,403.915894 297.868713,416.026794 313.860657,417.641479 
	C329.460052,419.216522 343.820862,409.109375 347.751312,394.047577 
	C348.806793,390.002930 347.327667,385.656433 349.821472,381.580139 
z"/>
<path fill="#9A9A9A" opacity="1.000000" stroke="none" 
	d="
M563.686157,324.746582 
	C560.946838,330.280945 556.354919,331.663269 553.095520,328.231354 
	C551.096558,326.126648 550.445923,323.681061 551.841980,320.973755 
	C553.220825,318.299683 555.704590,317.094208 558.427795,317.621887 
	C561.837341,318.282532 563.777893,320.703644 563.686157,324.746582 
z"/>
<path fill="#9B9B9B" opacity="1.000000" stroke="none" 
	d="
M211.059540,321.566223 
	C212.975952,318.056213 215.582947,316.829712 219.109680,317.929382 
	C221.908661,318.802063 222.854889,320.977478 222.985641,323.664154 
	C223.138763,326.810638 221.284821,328.632172 218.630188,329.620728 
	C214.102493,331.306854 210.877548,328.019775 211.059540,321.566223 
z"/>
<path fill="#424140" opacity="1.000000" stroke="none" 
	d="
M490.327484,381.380127 
	C490.952454,394.956146 486.175964,405.973785 474.184662,413.242004 
	C454.234619,425.334259 427.510040,412.266815 424.814270,389.086609 
	C424.546448,386.783722 424.390472,384.467804 424.199982,381.758942 
	C446.102325,381.373322 467.987305,381.386688 490.327484,381.380127 
z"/>
<path fill="#424040" opacity="1.000000" stroke="none" 
	d="
M349.634033,381.337311 
	C350.474243,399.489441 342.879364,412.113953 328.507843,417.245819 
	C306.944275,424.945862 285.134399,410.498016 283.880127,387.663971 
	C283.780060,385.842072 283.855316,384.010559 283.867950,381.758240 
	C305.642853,381.335907 327.398895,381.338898 349.634033,381.337311 
z"/>
</svg>