<svg width="60" height="60" viewBox="0 0 60 60" fill="none" xmlns="http://www.w3.org/2000/svg">
<path d="M25 47.5H15.5C12.6998 47.5 11.2996 47.5 10.2301 46.955C9.28923 46.4757 8.52433 45.7108 8.04498 44.77C7.5 43.7005 7.5 42.3003 7.5 39.5V20.5C7.5 17.6997 7.5 16.2996 8.04498 15.2301C8.52433 14.2892 9.28923 13.5243 10.2301 13.045C11.2996 12.5 12.6998 12.5 15.5 12.5H44.5C47.3003 12.5 48.7005 12.5 49.77 13.045C50.7108 13.5243 51.4758 14.2892 51.955 15.2301C52.5 16.2996 52.5 17.6997 52.5 20.5V25M51.5168 20.6557L38.8748 29.0838C35.6673 31.222 34.0635 32.2912 32.33 32.7067C30.798 33.0737 29.201 33.0737 27.6693 32.7067C25.9358 32.2912 24.332 31.222 21.1244 29.0838L7.86865 20.2466M35 52.5L40.0625 51.4875C40.5038 51.3992 40.7245 51.355 40.9303 51.2743C41.113 51.2028 41.2868 51.1098 41.4475 50.9975C41.629 50.871 41.788 50.712 42.1065 50.3935L52.5 40C53.8808 38.6193 53.8808 36.3807 52.5 35C51.1193 33.6193 48.8808 33.6193 47.5 35L37.1065 45.3935C36.788 45.712 36.629 45.871 36.5025 46.0525C36.3903 46.2132 36.2973 46.387 36.2258 46.5697C36.145 46.7755 36.1008 46.9963 36.0125 47.4375L35 52.5Z" stroke="#ABC4AA" stroke-width="4" stroke-linecap="round" stroke-linejoin="round"/>
</svg>
