<svg width="60" height="60" viewBox="0 0 60 60" fill="none" xmlns="http://www.w3.org/2000/svg">
<path d="M53.8868 27.0805C55.0355 26.3145 55.346 24.7624 54.5803 23.6135C53.8143 22.4647 52.262 22.1543 51.1133 22.9202L53.8868 27.0805ZM30 17.5003L31.7678 15.7325C30.7915 14.7562 29.2085 14.7562 28.2323 15.7325L30 17.5003ZM27.5 30.0002C27.5 31.381 28.6193 32.5002 30 32.5002C31.3808 32.5002 32.5 31.381 32.5 30.0002H27.5ZM23.2322 20.7325C22.2559 21.7088 22.2559 23.2917 23.2322 24.2681C24.2086 25.2445 25.7915 25.2445 26.7678 24.2681L23.2322 20.7325ZM33.2323 24.2681C34.2085 25.2445 35.7915 25.2445 36.7678 24.2681C37.744 23.2917 37.744 21.7088 36.7678 20.7325L33.2323 24.2681ZM50 26.0532V42.0002H55V26.0532H50ZM44.5 47.5002H15.5V52.5002H44.5V47.5002ZM10 42.0002V26.0532H5.00001V42.0002H10ZM12.5749 21.3956L27.075 12.2894L24.4158 8.05517L9.91576 17.1613L12.5749 21.3956ZM32.925 12.2894L47.425 21.3956L50.0843 17.1613L35.5843 8.05517L32.925 12.2894ZM27.075 12.2894C28.774 11.2223 29.129 11.039 29.444 10.9672L28.3318 6.09242C26.991 6.39832 25.8028 7.18412 24.4158 8.05517L27.075 12.2894ZM35.5843 8.05517C34.1973 7.18412 33.009 6.39832 31.6683 6.09242L30.556 10.9672C30.871 11.039 31.226 11.2223 32.925 12.2894L35.5843 8.05517ZM29.444 10.9672C29.81 10.8837 30.19 10.8837 30.556 10.9672L31.6683 6.09242C30.5703 5.84192 29.4298 5.84192 28.3318 6.09242L29.444 10.9672ZM15.5 47.5002C14.0586 47.5002 13.1279 47.4982 12.4196 47.4405C11.7404 47.385 11.4886 47.2907 11.365 47.2277L9.09509 51.6827C10.041 52.1647 11.0241 52.3432 12.0124 52.424C12.9716 52.5022 14.1411 52.5002 15.5 52.5002V47.5002ZM5.00001 42.0002C5.00001 43.3592 4.99806 44.5287 5.07644 45.4877C5.15719 46.4762 5.33549 47.4592 5.81746 48.4052L10.2725 46.1352C10.2095 46.0117 10.1153 45.7597 10.0598 45.0807C10.002 44.3722 10 43.4417 10 42.0002H5.00001ZM11.365 47.2277C10.8946 46.9882 10.5122 46.6057 10.2725 46.1352L5.81746 48.4052C6.53651 49.8165 7.68386 50.9637 9.09509 51.6827L11.365 47.2277ZM50 42.0002C50 43.4417 49.998 44.3722 49.9403 45.0807C49.8848 45.7597 49.7905 46.0117 49.7275 46.1352L54.1825 48.4052C54.6645 47.4592 54.8428 46.4762 54.9235 45.4877C55.002 44.5287 55 43.3592 55 42.0002H50ZM44.5 52.5002C45.859 52.5002 47.0285 52.5022 47.9875 52.424C48.976 52.3432 49.959 52.1647 50.905 51.6827L48.635 47.2277C48.5113 47.2907 48.2595 47.385 47.5805 47.4405C46.872 47.4982 45.9415 47.5002 44.5 47.5002V52.5002ZM49.7275 46.1352C49.4878 46.6057 49.1055 46.9882 48.635 47.2277L50.905 51.6827C52.3163 50.9637 53.4635 49.8165 54.1825 48.4052L49.7275 46.1352ZM55 26.0532C55 24.5998 55.027 23.3359 54.6583 22.1568L49.886 23.6488C49.973 23.9269 50 24.2776 50 26.0532H55ZM47.425 21.3956C48.9288 22.3399 49.2115 22.5493 49.4008 22.7708L53.2023 19.523C52.3998 18.5837 51.3153 17.9344 50.0843 17.1613L47.425 21.3956ZM54.6583 22.1568C54.356 21.1895 53.8605 20.2935 53.2023 19.523L49.4008 22.7708C49.6203 23.0277 49.7853 23.3263 49.886 23.6488L54.6583 22.1568ZM10 26.0532C10 24.2776 10.027 23.9269 10.1139 23.6488L5.34169 22.1568C4.97306 23.3359 5.00001 24.5998 5.00001 26.0532H10ZM9.91576 17.1613C8.68486 17.9344 7.60024 18.5837 6.79776 19.523L10.5993 22.7708C10.7885 22.5493 11.0712 22.3399 12.5749 21.3956L9.91576 17.1613ZM10.1139 23.6488C10.2147 23.3263 10.3798 23.0277 10.5993 22.7708L6.79776 19.523C6.13944 20.2935 5.64411 21.1895 5.34169 22.1568L10.1139 23.6488ZM6.11326 27.0805L24.1757 39.122L26.9493 34.9617L8.88676 22.9202L6.11326 27.0805ZM35.8243 39.122L53.8868 27.0805L51.1133 22.9202L33.0508 34.9617L35.8243 39.122ZM24.1757 39.122C25.616 40.0822 26.848 40.948 28.2523 41.2845L29.4175 36.4222C29.0883 36.3432 28.7163 36.14 26.9493 34.9617L24.1757 39.122ZM33.0508 34.9617C31.2838 36.14 30.9118 36.3432 30.5825 36.4222L31.7478 41.2845C33.152 40.948 34.384 40.0822 35.8243 39.122L33.0508 34.9617ZM28.2523 41.2845C29.4013 41.56 30.5988 41.56 31.7478 41.2845L30.5825 36.4222C30.1995 36.514 29.8005 36.514 29.4175 36.4222L28.2523 41.2845ZM27.5 17.5003V30.0002H32.5V17.5003H27.5ZM26.7678 24.2681L31.7678 19.2681L28.2323 15.7325L23.2322 20.7325L26.7678 24.2681ZM28.2323 19.2681L33.2323 24.2681L36.7678 20.7325L31.7678 15.7325L28.2323 19.2681Z" fill="#ABC4AA"/>
</svg>
