<svg width="40" height="40" viewBox="0 0 40 40" fill="none" xmlns="http://www.w3.org/2000/svg">
<g clip-path="url(#clip0_94_28)">
<path d="M31.7808 0.547943H8.21918C3.98247 0.547943 0.547943 3.98247 0.547943 8.21918V31.7808C0.547943 36.0175 3.98247 39.4521 8.21918 39.4521H31.7808C36.0175 39.4521 39.4521 36.0175 39.4521 31.7808V8.21918C39.4521 3.98247 36.0175 0.547943 31.7808 0.547943Z" fill="#ABC4AA" stroke="#ABC4AA" stroke-width="21.9178"/>
<path d="M33.0448 12.8374C31.7237 10.5738 29.9317 8.78177 27.6684 7.46082C25.4047 6.13979 22.9335 5.47945 20.2529 5.47945C17.5726 5.47945 15.1006 6.13999 12.8374 7.46082C10.5738 8.78171 8.78191 10.5738 7.46082 12.8374C6.13993 15.1008 5.47945 17.5725 5.47945 20.2525C5.47945 23.4716 6.41866 26.3664 8.29755 28.9375C10.1762 31.5088 12.6032 33.2881 15.5783 34.2755C15.9246 34.3397 16.181 34.2945 16.3477 34.141C16.5144 33.9872 16.5977 33.7947 16.5977 33.5641C16.5977 33.5256 16.5944 33.1795 16.588 32.5254C16.5814 31.8712 16.5783 31.3006 16.5783 30.8137L16.1358 30.8902C15.8537 30.9419 15.4979 30.9638 15.0682 30.9576C14.6388 30.9516 14.1929 30.9066 13.7314 30.8229C13.2696 30.7399 12.84 30.5476 12.4425 30.2462C12.0451 29.9448 11.763 29.5504 11.5962 29.0634L11.4039 28.6207C11.2757 28.326 11.0738 27.9987 10.798 27.6398C10.5223 27.2806 10.2434 27.0371 9.96131 26.9089L9.82663 26.8125C9.73688 26.7484 9.65361 26.6712 9.5766 26.5815C9.49965 26.4918 9.44205 26.4021 9.40358 26.3122C9.36504 26.2222 9.39698 26.1485 9.49972 26.0906C9.60247 26.0327 9.78816 26.0046 10.0576 26.0046L10.4422 26.0621C10.6987 26.1135 11.0159 26.267 11.3944 26.5237C11.7726 26.7801 12.0836 27.1135 12.3273 27.5237C12.6224 28.0496 12.9779 28.4503 13.3949 28.7261C13.8115 29.0019 14.2316 29.1395 14.6547 29.1395C15.0778 29.1395 15.4433 29.1074 15.7512 29.0436C16.0588 28.9795 16.3473 28.8831 16.6168 28.7549C16.7322 27.8954 17.0464 27.235 17.5592 26.7734C16.8283 26.6966 16.1712 26.5809 15.5875 26.4271C15.0042 26.2731 14.4014 26.0231 13.7795 25.6766C13.1573 25.3305 12.6412 24.9007 12.2309 24.3879C11.8206 23.875 11.4839 23.2015 11.2212 22.3681C10.9583 21.5344 10.8269 20.5727 10.8269 19.4827C10.8269 17.9307 11.3335 16.61 12.3467 15.5199C11.8721 14.3531 11.9169 13.0451 12.4812 11.596C12.8531 11.4804 13.4047 11.5671 14.1355 11.8556C14.8666 12.1441 15.4018 12.3913 15.7418 12.5963C16.0817 12.8012 16.3541 12.9748 16.5594 13.1156C17.7522 12.7823 18.9832 12.6156 20.2527 12.6156C21.5222 12.6156 22.7535 12.7823 23.9464 13.1156L24.6774 12.6542C25.1772 12.3463 25.7675 12.0641 26.4468 11.8076C27.1265 11.5512 27.6462 11.4806 28.0055 11.5962C28.5823 13.0453 28.6337 14.3533 28.159 15.5201C29.1721 16.6102 29.6789 17.9313 29.6789 19.4829C29.6789 20.5729 29.547 21.5376 29.2846 22.3777C29.0218 23.218 28.6822 23.8908 28.2655 24.3976C27.8484 24.9043 27.3289 25.3307 26.7071 25.6768C26.0851 26.0231 25.4821 26.273 24.8987 26.4271C24.3151 26.5811 23.658 26.6968 22.9271 26.7738C23.5937 27.3506 23.9271 28.2612 23.9271 29.5051V33.5636C23.9271 33.7941 24.0073 33.9866 24.1678 34.1404C24.3281 34.294 24.5812 34.3392 24.9275 34.2748C27.903 33.2876 30.33 31.5083 32.2086 28.937C34.087 26.3659 35.0266 23.4711 35.0266 20.2519C35.0259 17.5723 34.3651 15.1008 33.0448 12.8374Z" fill="#6C3428"/>
</g>
<defs>
<clipPath id="clip0_94_28">
<rect width="40" height="40" rx="5" fill="white"/>
</clipPath>
</defs>
</svg>
