<svg width="50" height="50" viewBox="0 0 50 50" fill="none" xmlns="http://www.w3.org/2000/svg">
<path d="M35.4167 4.16666H14.5833C8.85416 4.16666 4.16666 8.85416 4.16666 14.5833V35.4167C4.16666 41.1458 8.85416 45.8333 14.5833 45.8333H35.4167C41.1458 45.8333 45.8333 41.1458 45.8333 35.4167V14.5833C45.8333 8.85416 41.1458 4.16666 35.4167 4.16666ZM17.7083 36.4583H13.5417V20.8333H17.7083V36.4583ZM15.625 17.7083C14.4792 17.7083 13.5417 16.7708 13.5417 15.625C13.5417 14.4792 14.4792 13.5417 15.625 13.5417C16.7708 13.5417 17.7083 14.4792 17.7083 15.625C17.7083 16.7708 16.7708 17.7083 15.625 17.7083ZM36.4583 36.4583H32.2917V28.6458C32.2917 26.0417 31.25 24.8958 29.1667 24.8958L25 25V36.4583H20.8333V20.8333L29.1667 20.625C32.7083 20.625 36.4583 22.7083 36.4583 28.5417V36.4583Z" fill="#ABC4AA"/>
</svg>
