<!DOCTYPE svg PUBLIC "-//W3C//DTD SVG 1.1//EN" "http://www.w3.org/Graphics/SVG/1.1/DTD/svg11.dtd">

<!-- Uploaded to: SVG Repo, www.svgrepo.com, Transformed by: SVG Repo Mixer Tools -->
<svg width="40px" height="40px" viewBox="-0.5 -0.5 26.00 26.00" fill="none" xmlns="http://www.w3.org/2000/svg">

<g id="SVGRepo_bgCarrier" stroke-width="0" transform="translate(0,0), scale(1)">

<rect x="-0.5" y="-0.5" width="26.00" height="26.00" rx="5.2" fill="#f3deba" strokewidth="0" data-darkreader-inline-fill="" style="--darkreader-inline-fill: #544020;"/>

</g>

<g id="SVGRepo_tracerCarrier" stroke-linecap="round" stroke-linejoin="round" stroke="#CCCCCC" stroke-width="0.2" data-darkreader-inline-stroke="" style="--darkreader-inline-stroke: #e2d3ba;"/>

<g id="SVGRepo_iconCarrier"> <path d="M8 13.8599L10.87 10.8C11.0125 10.6416 11.1868 10.5149 11.3815 10.4282C11.5761 10.3415 11.7869 10.2966 12 10.2966C12.2131 10.2966 12.4239 10.3415 12.6185 10.4282C12.8132 10.5149 12.9875 10.6416 13.13 10.8L16 13.8599" stroke="#675d50" stroke-width="1" stroke-linecap="round" stroke-linejoin="round" data-darkreader-inline-stroke="" style="--darkreader-inline-stroke: #fff9de;"/> <path d="M3 7.41992L3 17.4199C3 19.6291 4.79086 21.4199 7 21.4199H17C19.2091 21.4199 21 19.6291 21 17.4199V7.41992C21 5.21078 19.2091 3.41992 17 3.41992H7C4.79086 3.41992 3 5.21078 3 7.41992Z" stroke="#675d50" stroke-width="1" stroke-linecap="round" stroke-linejoin="round" data-darkreader-inline-stroke="" style="--darkreader-inline-stroke: #fff9de;"/> </g>

</svg>