<svg width="40" height="40" viewBox="0 0 40 40" fill="none" xmlns="http://www.w3.org/2000/svg">
<g clip-path="url(#clip0_34_25)">
<path d="M30 0H9.99999C4.47714 0 -1.52588e-05 4.47715 -1.52588e-05 10V30C-1.52588e-05 35.5229 4.47714 40 9.99998 40H30C35.5228 40 40 35.5229 40 30V10C40 4.47715 35.5228 0 30 0Z" fill="#F3DEBA"/>
<path d="M31.8941 20.3888C31.84 26.8653 26.5695 32.1358 20.0929 32.19C13.6154 32.2441 8.34537 26.7841 8.29195 20.3888C8.26926 17.6755 4.05969 17.6733 4.08238 20.3888C4.11702 24.536 5.70514 28.4537 8.54104 31.4738C11.3544 34.4702 15.3166 36.1437 19.3847 36.3817C23.5275 36.6244 27.5674 35.0508 30.6893 32.3852C33.8171 29.7146 35.5936 25.8323 36.0333 21.7961C36.0842 21.3289 36.0997 20.8584 36.1036 20.3889C36.1263 17.6733 31.9168 17.6755 31.8941 20.3888Z" fill="#675D50"/>
<path d="M8.29195 19.6304C8.34605 13.1537 13.6163 7.88318 20.0929 7.82907C22.8063 7.80639 22.8084 3.59688 20.0929 3.61954C15.8767 3.65473 11.8769 5.29815 8.84993 8.23152C5.78987 11.1968 4.11773 15.3951 4.08238 19.6304C4.05969 22.3459 8.26923 22.3436 8.29195 19.6304Z" fill="#A9907E"/>
<path d="M16.3866 23.4216C14.6234 21.0693 14.8838 18.4055 17.0774 16.5119C19.1292 14.7406 22.1639 15.4115 23.8996 17.5685C24.62 18.4636 26.1308 18.314 26.8762 17.5685C27.7523 16.6923 27.5948 15.4849 26.8762 14.5919C23.9721 10.9833 18.424 10.2746 14.7142 13.0554C10.8464 15.9545 9.79224 21.5977 12.7518 25.5462C13.4385 26.4623 14.5562 26.9312 15.6315 26.3013C16.5365 25.7712 17.0764 24.3419 16.3866 23.4216Z" fill="#ABC4AA"/>
<path d="M23.7996 17.4375C24.798 18.7697 25.0562 19.7666 24.9122 21.3199C24.9354 21.1296 24.9254 21.1639 24.8821 21.4232C24.8398 21.6435 24.776 21.8589 24.7126 22.0736C24.5787 22.526 24.6155 22.3959 24.3952 22.8137C24.0053 23.5532 23.6311 23.9271 22.9215 24.4982C22.0264 25.2186 22.176 26.7292 22.9215 27.4748C23.7976 28.3509 25.0052 28.1934 25.8981 27.4748C29.5065 24.5704 30.2149 19.0227 27.4343 15.3129C26.7477 14.3968 25.6299 13.9279 24.5545 14.5578C23.6496 15.088 23.1098 16.5172 23.7996 17.4375Z" fill="#675D50"/>
</g>
<defs>
<clipPath id="clip0_34_25">
<rect width="40" height="40" fill="white"/>
</clipPath>
</defs>
</svg>
