<!DOCTYPE svg PUBLIC "-//W3C//DTD SVG 1.1//EN" "http://www.w3.org/Graphics/SVG/1.1/DTD/svg11.dtd">

<!-- Uploaded to: SVG Repo, www.svgrepo.com, Transformed by: SVG Repo Mixer Tools -->
<svg width="48px" height="48px" viewBox="-7.68 -7.68 39.36 39.36" fill="none" xmlns="http://www.w3.org/2000/svg" stroke="#675D50">

<g id="SVGRepo_bgCarrier" stroke-width="0">

<path transform="translate(-7.68, -7.68), scale(1.23)" d="M16,30.105332348081802C19.873555353215927,29.584490280911368,21.78247361930267,25.608481855628764,24.133321839793304,22.486107730451234C26.351739620852097,19.539626448488214,29.158489618696436,16.746097158452898,28.823647710476926,13.073086092205456C28.43774943793764,8.84001791678051,26.09373871953907,4.828847087620747,22.341563023002013,2.8316086950243733C18.423193329217266,0.745907218935268,13.469227209508746,0.5662773850737715,9.684381370756238,2.885482783784475C6.215747329456062,5.01092596891208,5.874983349368791,9.516383003881542,4.9625662094359,13.480777763290405C4.0467658157545054,17.459872546233797,2.309307513610257,21.715250108233214,4.567752056315472,25.11691351019399C6.987268334815857,28.76118274921837,11.664685800888822,30.68826296437563,16,30.105332348081802" fill="#F3DEBA" strokewidth="0"/>

</g>

<g id="SVGRepo_tracerCarrier" stroke-linecap="round" stroke-linejoin="round"/>

<g id="SVGRepo_iconCarrier"> <path d="M9 12H15" stroke="#675D50" stroke-width="2" stroke-linecap="round" stroke-linejoin="round"/> <path d="M12 9L12 15" stroke="#675D50" stroke-width="2" stroke-linecap="round" stroke-linejoin="round"/> <path d="M3 12C3 4.5885 4.5885 3 12 3C19.4115 3 21 4.5885 21 12C21 19.4115 19.4115 21 12 21C4.5885 21 3 19.4115 3 12Z" stroke="#675D50" stroke-width="2"/> </g>

</svg>