<!DOCTYPE svg PUBLIC "-//W3C//DTD SVG 1.1//EN" "http://www.w3.org/Graphics/SVG/1.1/DTD/svg11.dtd">
<!-- Uploaded to: SVG Repo, www.svgrepo.com, Transformed by: SVG Repo Mixer Tools -->
<svg width="800px" height="800px" viewBox="-1.6 -1.6 19.20 19.20" xmlns="http://www.w3.org/2000/svg" fill="#6c3428">
<g id="SVGRepo_bgCarrier" stroke-width="0"/>
<g id="SVGRepo_tracerCarrier" stroke-linecap="round" stroke-linejoin="round" stroke="#6c3428" stroke-width="3.2">
<path d="M3.288 1.969c-.742 0-1.32.577-1.32 1.32v9.423c0 .742.578 1.32 1.32 1.32h9.424c.742 0 1.32-.578 1.32-1.32V3.288c0-.742-.578-1.32-1.32-1.32zM7 4h2v2H7zm0 3h2v5H7z" style="marker:none" color="#6c3428" overflow="visible" fill="#f3deba"/>
</g>
<g id="SVGRepo_iconCarrier">
<path d="M3.288 1.969c-.742 0-1.32.577-1.32 1.32v9.423c0 .742.578 1.32 1.32 1.32h9.424c.742 0 1.32-.578 1.32-1.32V3.288c0-.742-.578-1.32-1.32-1.32zM7 4h2v2H7zm0 3h2v5H7z" style="marker:none" color="#6c3428" overflow="visible" fill="#f3deba"/>
</g>
</svg>