<svg version="1.1" id="Layer_1" xmlns="http://www.w3.org/2000/svg" xmlns:xlink="http://www.w3.org/1999/xlink" x="0px" y="0px"
	 width="100%" viewBox="0 0 752 809" enable-background="new 0 0 752 809" xml:space="preserve">
<path fill="#E56464" opacity="1.000000" stroke="none" 
	d="
M203.279434,809.745239 
	C137.010361,810.000000 71.020660,809.968445 5.031258,810.091858 
	C1.676306,810.098145 0.900646,809.519897 0.902043,806.032288 
	C1.008992,539.074280 1.011668,272.116180 0.884957,5.158153 
	C0.883125,1.297527 1.988796,0.923893 5.340592,0.925004 
	C253.134979,1.007117 500.929413,1.009042 748.723755,0.909537 
	C752.256287,0.908118 753.103333,1.543215 753.101807,5.222547 
	C752.990112,272.013947 752.988831,538.805359 753.107239,805.596741 
	C753.109009,809.561829 751.975159,810.090515 748.404480,810.084290 
	C682.582214,809.969177 616.759766,810.000000 550.468628,810.000000 
	C548.038147,808.385803 546.697754,806.350891 545.558044,804.077148 
	C529.747314,772.533936 514.101685,740.901062 498.823425,709.105408 
	C483.252289,676.700256 467.250946,644.522095 451.050781,612.435059 
	C449.805298,609.968140 448.849823,607.507263 451.401917,604.796814 
	C457.406158,603.034241 463.182861,603.953247 468.905212,603.782166 
	C474.982574,603.600464 481.070221,603.906677 487.568054,603.580322 
	C512.246460,622.145203 539.516602,633.725403 569.582031,638.456665 
	C583.198608,640.599487 597.014832,640.983765 610.771484,639.684570 
	C624.409851,638.396545 633.127747,624.868042 628.830200,611.464966 
	C625.376648,600.694031 620.292297,590.534668 615.996826,580.077026 
	C613.090271,573.000610 610.058105,565.973511 607.168762,558.891663 
	C604.430115,552.179199 606.560913,549.501343 613.716492,550.000000 
	C626.328430,550.878906 638.531372,548.744934 650.379578,544.582336 
	C653.942810,543.330444 657.587952,541.843872 659.354980,537.937988 
	C661.559326,533.065674 660.922546,528.612976 657.815125,524.313477 
	C650.607666,514.341248 642.918335,504.739563 635.426636,494.986145 
	C624.290466,480.487915 613.050110,466.069977 601.920837,451.566254 
	C600.588379,449.829773 599.343262,448.091431 598.954834,445.489777 
	C599.500427,441.580597 602.550049,440.463837 605.091309,439.069336 
	C618.678040,431.613525 626.126038,419.885956 626.409912,404.748901 
	C626.736084,387.356079 616.591309,371.836365 598.767944,366.297455 
	C594.344788,364.922852 589.744324,364.013947 585.029724,364.096039 
	C583.191528,364.128082 581.353333,364.009827 579.500488,362.555756 
	C577.473450,359.754639 577.845886,356.855286 577.841797,354.053253 
	C577.807068,330.393158 577.868652,306.732849 577.806030,283.072845 
	C577.771851,270.166870 576.313049,257.468536 570.914917,245.557510 
	C558.357239,217.849075 537.070374,201.250336 507.046326,196.283051 
	C501.424133,195.352905 498.266327,193.014648 496.198090,187.675507 
	C481.204956,148.970276 453.414093,125.575775 412.293213,118.526260 
	C407.364258,117.681274 402.300079,117.933006 397.329224,118.390083 
	C391.806854,118.897873 388.144836,123.528938 388.031616,129.559372 
	C387.996765,131.414673 388.454681,133.181396 388.894165,134.965469 
	C389.455780,137.245361 390.099152,139.683258 387.906586,141.455475 
	C385.810028,143.150101 383.406342,142.418961 381.245880,141.541931 
	C365.165375,135.014053 348.275024,131.923126 331.110901,131.424225 
	C311.618225,130.857666 292.758514,134.975677 274.781677,142.693832 
	C270.808319,144.399719 267.094574,146.720673 263.135559,148.410461 
	C251.903641,153.204391 249.098511,167.797394 260.533051,177.552628 
	C264.201111,180.682007 267.973236,183.695602 271.494171,186.988464 
	C273.171265,188.556931 275.190369,190.362930 273.992767,192.978104 
	C272.924744,195.310333 270.407623,195.165970 268.263214,195.111832 
	C257.886505,194.849838 247.613998,195.628494 237.668228,198.716187 
	C205.445587,208.719788 186.369812,230.771591 179.226181,263.389984 
	C177.629639,270.679901 177.243790,278.221497 177.211914,285.701752 
	C177.114655,308.528412 177.188644,331.355713 177.162308,354.182770 
	C177.159622,356.500946 177.416916,358.859100 176.430222,361.484741 
	C174.957596,364.855042 172.297409,364.330139 169.847076,364.166565 
	C159.099335,363.449158 149.490814,366.414551 141.039032,373.055939 
	C131.359909,380.661835 122.575600,398.841919 127.998375,415.285553 
	C131.739746,426.630554 139.219421,434.191620 149.119705,439.963379 
	C150.979202,441.047424 153.038437,441.886902 153.909332,444.544800 
	C154.107666,447.672028 152.380173,449.622223 150.877335,451.556152 
	C132.403595,475.329529 114.095802,499.231232 95.614502,522.998474 
	C89.145721,531.317444 91.895866,541.395813 101.821548,544.590576 
	C114.069328,548.532654 126.561897,550.917358 139.537689,550.034058 
	C145.685059,549.615540 147.834534,552.879028 145.356354,559.066956 
	C141.087372,569.726440 136.432648,580.228455 132.079239,590.854858 
	C129.681564,596.707397 127.252876,602.547546 124.831154,608.389771 
	C117.618904,625.788696 130.341431,639.888977 146.120102,640.126343 
	C166.729599,640.436462 186.885147,639.068542 206.658783,633.040710 
	C223.816101,627.810486 239.984909,620.527405 254.813812,610.407959 
	C257.938538,608.275574 261.600128,606.899231 264.544739,603.778198 
	C277.044342,604.042542 289.163727,603.290771 301.657074,604.281616 
	C305.633118,606.874390 304.345062,609.934265 302.958069,612.838074 
	C298.868713,621.399841 294.758118,629.962585 290.241760,638.301880 
	C278.588379,659.819519 268.093781,681.918579 257.108124,703.770081 
	C242.306381,733.212097 228.260422,763.029419 213.264008,792.376282 
	C211.219574,796.377136 209.787582,800.658020 207.680573,804.637512 
	C206.650864,806.582336 205.568756,808.411133 203.279434,809.745239 
z"/>
<path fill="#424242" opacity="1.000000" stroke="none" 
	d="
M203.468658,810.000000 
	C204.791092,803.899597 208.047211,798.438477 210.805725,792.792786 
	C230.466858,752.552246 250.132355,712.311401 270.196686,672.271179 
	C281.154266,650.404297 292.715485,628.838745 303.423523,606.433716 
	C303.861115,603.819336 305.506989,603.200562 307.441742,602.969727 
	C309.261017,602.752625 311.091431,602.747864 312.919678,602.747070 
	C355.639496,602.728394 398.359406,602.702209 441.079041,602.799255 
	C444.241486,602.806458 447.865540,601.769897 450.401459,605.571899 
	C451.293213,609.548645 453.590912,612.295654 455.127441,615.415100 
	C479.664856,665.232727 504.251526,715.026062 528.818176,764.829285 
	C535.217346,777.802185 541.599243,790.783630 547.953918,803.778381 
	C548.823486,805.556580 549.487732,807.435120 550.123535,809.633606 
	C434.645782,810.000000 319.291534,810.000000 203.468658,810.000000 
z"/>
<path fill="#FEC5B6" opacity="1.000000" stroke="none" 
	d="
M451.013855,605.965942 
	C449.038818,605.856079 447.568207,605.475525 446.097351,605.474548 
	C399.943909,605.443359 353.790436,605.446655 307.636963,605.463623 
	C306.482544,605.464050 305.328217,605.677490 303.832458,605.925537 
	C293.389191,605.950867 283.287018,605.863281 273.185638,605.719971 
	C270.374084,605.680054 267.564819,605.474731 264.346100,605.420959 
	C256.286530,608.901733 248.543945,607.102722 240.952835,605.537903 
	C207.286911,598.597717 178.505783,568.738037 174.594559,533.716370 
	C174.169006,529.905945 173.806732,526.126526 173.803619,522.305908 
	C173.785202,499.685852 173.825928,477.065796 173.778900,454.445801 
	C173.765335,447.917664 173.566940,448.009094 167.080643,447.993713 
	C162.381271,447.982605 157.470123,448.329498 153.239471,444.795380 
	C147.593292,441.414032 141.901443,438.773926 137.285980,434.245087 
	C126.446632,423.609283 122.047012,410.770538 125.087433,396.041016 
	C128.217682,380.876221 137.071335,370.021545 151.964005,364.429443 
	C159.399765,361.637329 166.950104,361.876923 174.891968,362.179657 
	C179.661224,358.810211 184.957993,358.572174 190.498016,357.718079 
	C192.882217,357.723907 194.317047,358.875519 195.754578,360.029358 
	C199.608139,363.122498 204.006332,364.913055 208.858109,365.821655 
	C214.053391,366.794495 214.990311,368.538513 214.644943,373.767731 
	C213.689011,388.242157 213.292755,402.750275 216.660995,416.992554 
	C220.670944,433.948303 229.905411,447.654327 243.438217,458.579315 
	C267.726898,478.187531 302.606476,480.699188 329.967163,463.761444 
	C347.158386,453.119049 359.159180,437.836975 363.748047,417.911285 
	C366.975189,403.898315 376.855011,402.762787 386.246643,404.270325 
	C391.965210,405.188232 395.703094,409.024048 396.947174,414.845947 
	C399.984039,429.057739 406.517242,441.491638 416.652496,451.800964 
	C430.627075,466.015564 447.641022,473.891479 467.716736,474.845520 
	C484.066254,475.622467 499.197083,471.651367 512.693848,462.518738 
	C530.590027,450.409119 542.020569,433.740387 545.831421,412.262329 
	C547.942078,400.366577 546.523560,388.325348 546.812439,376.353455 
	C547.029907,367.340729 546.950562,366.872803 555.854065,365.057678 
	C560.602417,364.089661 563.832642,360.259155 568.926147,359.474121 
	C572.814697,359.162964 576.213928,359.282349 579.551025,361.634094 
	C586.144470,362.315918 592.445618,362.126404 598.646729,363.896790 
	C614.007568,368.282288 626.254395,382.405884 628.079468,398.272308 
	C630.138367,416.171631 622.204163,432.286316 607.332886,440.341431 
	C604.996155,441.607147 602.593140,442.750458 599.995483,444.200378 
	C599.430359,446.238983 598.097473,446.828461 596.529846,447.023743 
	C593.894592,447.351898 591.336731,448.088226 588.646545,448.179596 
	C581.466919,448.423431 581.226257,448.702362 581.215759,456.075684 
	C581.184570,478.033844 581.456543,499.995575 581.145874,521.949463 
	C580.659973,556.289124 564.542419,581.498840 534.812988,597.919983 
	C522.921753,604.487976 509.911377,608.104736 496.019531,607.203918 
	C493.857574,607.063782 491.686371,607.104553 489.386597,605.688293 
	C476.518280,605.602478 464.018219,605.737366 451.013855,605.965942 
z"/>
<path fill="#672D2D" opacity="1.000000" stroke="none" 
	d="
M191.353882,358.352081 
	C186.343185,360.978546 181.313644,362.111511 175.599274,362.010437 
	C175.228256,335.627808 175.163254,309.304260 175.364441,282.982758 
	C175.470764,269.070923 177.427795,255.500534 183.542236,242.707535 
	C196.680588,215.218643 218.397308,199.388794 248.217972,194.164078 
	C256.436737,192.724106 264.748810,193.585419 273.774811,193.007050 
	C269.417755,187.191864 263.896484,183.731857 259.260712,179.374084 
	C255.402634,175.747360 252.151306,171.858261 251.244675,166.488052 
	C249.830688,158.112488 253.347794,151.182480 261.088318,146.982834 
	C299.571106,126.103973 339.348328,124.241150 380.263794,138.842087 
	C382.569427,139.664871 385.340485,142.045670 387.181335,140.672348 
	C389.543762,138.909897 386.776367,136.139465 386.227051,133.878235 
	C383.752014,123.689034 389.554718,115.765533 400.141663,115.918335 
	C439.488892,116.486267 468.387939,135.240982 489.215149,167.710831 
	C493.274414,174.039291 496.600800,180.837845 498.680786,188.033966 
	C499.863556,192.126053 502.006592,193.683426 505.878082,194.078156 
	C518.537048,195.368912 530.223389,199.599075 540.807739,206.575790 
	C562.289307,220.735397 575.181458,240.555176 578.703369,266.113556 
	C580.940430,282.348480 579.518005,298.723022 579.726074,315.033173 
	C579.921692,330.358856 579.782471,345.688873 579.821899,361.482147 
	C576.364075,362.359436 572.971924,361.833221 569.264282,360.654846 
	C567.034363,358.314606 568.250793,356.273346 569.268738,354.448700 
	C576.778625,340.987213 567.173340,324.216095 552.273438,323.839355 
	C548.615479,323.746857 544.607483,323.844116 540.765259,321.805237 
	C537.557800,316.945526 538.944946,311.812531 538.922180,306.930786 
	C538.875427,296.903198 536.905029,287.368744 532.177612,278.576019 
	C519.494263,254.985809 499.645905,242.831833 472.849487,242.188751 
	C466.692169,242.040970 460.527344,242.160339 454.365845,242.188171 
	C451.244873,242.202271 449.167358,243.506744 447.412872,246.149170 
	C429.028534,273.837219 403.605743,291.471069 370.894775,297.445465 
	C342.958862,302.547791 316.608398,297.458313 292.787567,281.475677 
	C282.427521,274.524567 282.147003,262.286316 291.939484,254.333878 
	C297.092621,250.149078 302.832245,246.745407 308.555542,242.116104 
	C290.863129,242.701157 273.554688,239.950943 257.132172,246.904037 
	C233.424408,256.941650 219.698120,274.599457 215.994843,300.221436 
	C215.016663,306.989227 216.105225,313.867340 214.111450,320.866394 
	C212.322067,323.131104 210.114227,323.686127 207.758789,324.048309 
	C194.386383,326.104706 186.713791,338.464905 190.801910,351.349640 
	C191.501511,353.554596 192.672043,355.673309 191.353882,358.352081 
z"/>
<path fill="#672D2D" opacity="1.000000" stroke="none" 
	d="
M153.043488,444.751831 
	C158.885498,445.050385 164.609421,446.585388 170.429550,445.386230 
	C174.556595,444.535889 175.899155,445.766113 175.861908,450.135803 
	C175.663147,473.441101 175.548294,496.751556 175.819702,520.055359 
	C176.236725,555.861694 192.757980,581.852295 224.721619,597.797974 
	C236.672409,603.759705 249.673325,605.705505 263.464935,605.478027 
	C259.901886,611.327271 253.492081,614.104187 247.738831,617.513794 
	C220.074966,633.908691 189.998169,642.056091 157.886063,642.628967 
	C152.409073,642.726685 146.876587,642.466919 141.444000,641.782654 
	C125.634857,639.791565 116.554489,624.356750 122.397850,609.039368 
	C127.080635,596.764160 132.410446,584.735596 137.460449,572.600708 
	C139.633713,567.378418 141.716217,562.114502 144.045151,556.962219 
	C145.750381,553.189697 144.784302,551.859436 140.674423,552.162842 
	C127.552773,553.131470 114.876549,550.825684 102.354218,547.010193 
	C89.634338,543.134583 86.090378,531.858643 94.226944,521.376160 
	C113.897598,496.034119 133.386154,470.550751 153.043488,444.751831 
z"/>
<path fill="#672D2D" opacity="1.000000" stroke="none" 
	d="
M489.098572,605.779846 
	C511.468689,606.289307 531.810181,600.472778 549.132385,585.808105 
	C569.094727,568.908264 578.988098,547.138855 579.192078,521.065674 
	C579.375549,497.613525 579.288391,474.158569 579.172546,450.705566 
	C579.154297,447.015564 579.756165,445.067444 584.108093,445.824707 
	C589.098938,446.693115 594.009338,445.245117 599.344360,444.443115 
	C607.063660,455.806854 615.914368,465.993439 624.063049,476.705719 
	C635.553406,491.811035 647.343567,506.688934 658.777710,521.836121 
	C666.765015,532.417297 663.346497,542.587524 650.716003,546.817627 
	C638.277771,550.983276 625.540710,552.968140 612.396606,552.219299 
	C606.852051,551.903503 606.664551,552.135071 608.725281,557.099365 
	C615.234924,572.781372 621.680542,588.494141 628.494934,604.044189 
	C634.381897,617.478149 632.978333,628.200073 623.677185,636.432678 
	C620.041016,639.651062 615.758667,641.432922 611.015320,641.833435 
	C586.295227,643.920715 562.128296,641.023071 538.640259,633.079651 
	C522.305054,627.555176 507.049316,619.778870 492.949066,609.809692 
	C491.508270,608.791016 489.528839,608.245300 489.098572,605.779846 
z"/>
<path fill="#494747" opacity="1.000000" stroke="none" 
	d="
M540.921082,320.792969 
	C547.574097,320.901276 553.916443,321.074158 559.874084,323.210327 
	C572.117493,327.600403 577.657654,342.534668 571.750488,354.522827 
	C570.879089,356.291260 569.927185,358.020081 568.959106,360.093842 
	C563.452576,364.298340 557.882202,367.773651 550.816833,367.883362 
	C547.620239,367.932983 548.625610,370.560760 548.680725,372.415924 
	C549.061218,385.229187 549.913696,398.092651 548.001770,410.817108 
	C539.605957,466.692810 475.995789,495.359192 428.830139,464.362823 
	C411.809357,453.177155 400.380188,437.520477 395.532654,417.425842 
	C393.020325,407.011322 383.810089,402.423920 373.922241,406.672546 
	C369.960968,408.374664 367.367126,410.934448 366.306122,415.654175 
	C354.381012,468.701691 294.660858,493.933502 248.957443,464.890930 
	C227.184280,451.054993 214.705841,430.764130 212.864517,404.677399 
	C212.091309,393.722931 212.127609,382.710022 212.973373,371.735596 
	C213.149216,369.453949 213.052368,367.828918 210.126755,367.760925 
	C202.689362,367.588074 196.865448,363.929688 191.406494,358.773315 
	C189.268204,352.840546 186.140198,347.397339 187.756210,340.851166 
	C190.691116,328.962494 196.350967,323.594238 208.418930,321.828461 
	C209.732834,321.636200 211.028061,321.316254 212.749420,321.018219 
	C214.611328,318.920929 216.797104,318.836945 218.989273,318.832428 
	C250.654526,318.767090 282.329712,318.273132 313.981995,318.990540 
	C341.664856,319.617950 363.263153,337.914917 369.499847,364.472778 
	C370.237640,367.614502 370.070251,370.758972 370.241821,373.908630 
	C370.509766,378.826904 371.255554,379.577179 376.275146,379.748383 
	C378.939728,379.839294 381.608673,379.821228 384.274170,379.759644 
	C389.720917,379.633759 390.367706,379.183746 390.850067,373.898499 
	C392.030548,360.964508 396.025848,349.215057 404.662811,339.254852 
	C414.212982,328.241547 426.010040,321.576141 440.594086,319.711609 
	C453.727112,318.032593 466.884033,318.976166 480.027039,318.830719 
	C497.690887,318.635223 515.358765,318.745300 533.024597,318.816162 
	C535.627625,318.826599 538.433105,318.302338 540.921082,320.792969 
z"/>
<path fill="#EE9684" opacity="1.000000" stroke="none" 
	d="
M397.661499,455.391998 
	C405.055084,470.444427 400.135712,484.579803 386.228760,488.367065 
	C377.915192,490.631073 370.759583,488.147339 365.121674,481.652618 
	C360.018402,475.773682 358.529724,469.082581 361.273010,461.671906 
	C365.183319,451.108612 371.583435,441.960663 377.892700,432.772278 
	C379.926544,429.810364 381.877167,429.738861 383.956146,432.935272 
	C388.671997,440.185822 393.739044,447.215424 397.661499,455.391998 
z"/>
<path fill="#EE9785" opacity="1.000000" stroke="none" 
	d="
M353.400879,521.650757 
	C343.217438,515.788696 333.776581,509.612671 328.113556,499.251526 
	C325.921570,495.241058 327.171936,491.779114 330.548035,489.102692 
	C333.385498,486.853210 338.179230,487.681061 340.960907,490.668732 
	C341.410004,491.151062 341.720062,491.759705 342.136627,492.275818 
	C354.204315,507.226898 369.674622,514.151611 388.954102,512.206116 
	C391.427277,511.956543 393.958282,511.894409 396.430328,512.111572 
	C399.984802,512.423828 402.243530,514.635742 402.894653,518.052124 
	C403.554321,521.513306 402.967346,524.529175 399.272461,526.448975 
	C395.226288,528.551270 390.740234,528.753113 386.628662,528.648438 
	C375.335846,528.360901 364.044922,527.218933 353.400879,521.650757 
z"/>
<path fill="#FEC5B6" opacity="1.000000" stroke="none" 
	d="
M541.258423,320.593079 
	C523.467773,321.948486 505.657104,321.067322 487.854126,321.353912 
	C472.216705,321.605652 456.567139,320.634827 440.939331,322.071960 
	C418.374908,324.147003 396.898346,344.880890 394.210785,367.453613 
	C393.778381,371.085266 393.392700,374.751678 393.415985,378.399261 
	C393.435028,381.382477 392.514465,382.573456 389.421631,382.473999 
	C383.766510,382.292053 378.096283,382.281677 372.442200,382.480103 
	C369.215729,382.593323 368.062134,381.524628 368.099670,378.217743 
	C368.200867,369.299103 366.784973,360.602844 362.667633,352.577667 
	C351.874115,331.539734 334.259674,321.505066 310.943420,321.380981 
	C280.641968,321.219727 250.338760,321.400543 220.036301,321.417480 
	C218.043777,321.418610 216.051178,321.278473 213.612762,321.092468 
	C213.190292,308.644257 213.071655,296.303497 217.367554,284.444580 
	C226.605576,258.942871 251.368256,240.921005 278.449677,240.332947 
	C290.103729,240.079895 301.767853,240.290588 314.284149,240.290588 
	C309.844330,245.104431 304.488281,247.680511 299.947479,251.255966 
	C297.470490,253.206375 294.712921,254.800278 292.234100,256.748627 
	C284.462097,262.857483 284.763458,273.747772 293.085388,279.109619 
	C329.708740,302.706055 367.284668,302.767426 405.280975,282.821747 
	C422.579163,273.741302 436.123444,260.364319 446.338135,243.696198 
	C447.886780,241.169159 449.706604,240.024979 452.799408,240.161789 
	C463.105682,240.617661 473.463196,239.486954 483.738861,240.988220 
	C515.994568,245.700806 540.215942,272.974304 541.151062,305.625977 
	C541.289429,310.454193 541.220886,315.288361 541.258423,320.593079 
z"/>
<path fill="#EC9483" opacity="1.000000" stroke="none" 
	d="
M226.117859,402.494324 
	C224.722443,390.504272 224.191467,378.785278 226.427673,367.341217 
	C230.012680,348.994476 244.763351,335.854126 264.281952,334.571411 
	C282.509552,333.373505 300.887634,333.090057 319.118347,334.854889 
	C337.802429,336.663696 352.968231,352.313782 354.905579,370.971771 
	C355.955597,381.083893 355.416229,391.248108 355.119995,401.867828 
	C351.907227,405.070953 348.226044,404.006348 344.219177,403.972076 
	C321.807068,404.467499 299.883545,404.415802 277.465820,403.998779 
	C261.859741,404.548584 246.743393,404.211823 231.628815,404.180634 
	C229.830765,404.176941 227.929672,404.274078 226.117859,402.494324 
z"/>
<path fill="#ED9483" opacity="1.000000" stroke="none" 
	d="
M406.823822,402.596008 
	C405.710449,390.786560 405.187042,379.264984 407.100586,367.925232 
	C410.145020,349.883698 425.087036,336.081696 444.494171,334.658051 
	C463.040222,333.297638 481.747406,333.095276 500.302856,334.903687 
	C518.230469,336.650909 533.277710,352.005127 535.552795,369.872681 
	C536.881409,380.307678 536.213806,390.796906 535.959351,401.735657 
	C534.414917,403.921295 532.447510,404.176178 530.414307,404.180298 
	C515.287048,404.210938 500.158600,404.534698 484.542542,403.996460 
	C462.517944,404.447235 440.984131,404.416168 418.965271,403.996643 
	C414.690582,403.804657 410.759064,405.185791 406.823822,402.596008 
z"/>
<path fill="#FCFCFB" opacity="1.000000" stroke="none" 
	d="
M406.407349,402.644958 
	C410.033539,402.266724 413.577301,402.286713 417.577515,402.304260 
	C419.987274,403.559875 419.950409,405.601318 420.211121,407.585327 
	C421.749207,419.291626 427.615265,427.932892 438.344086,433.161713 
	C457.083282,442.294464 480.229156,429.112457 481.836090,408.359314 
	C482.000122,406.240936 481.662018,403.962433 484.088684,402.365540 
	C501.277802,402.265991 518.098022,402.248383 535.376953,402.217255 
	C536.116577,413.393097 532.568726,423.525970 526.853333,432.898682 
	C507.791382,464.158173 467.273743,473.982117 436.628357,454.242584 
	C418.255890,442.408417 407.512177,425.384674 406.407349,402.644958 
z"/>
<path fill="#FCFCFB" opacity="1.000000" stroke="none" 
	d="
M343.450958,402.582977 
	C347.164001,402.292694 350.611084,402.267609 354.522919,402.292908 
	C355.338745,429.786407 333.156097,456.336212 304.456238,462.822968 
	C266.625549,471.373444 228.864731,443.839996 225.530258,405.262390 
	C225.459122,404.439423 225.546692,403.602692 225.670517,402.449219 
	C242.624191,402.177887 259.467590,402.229797 276.797089,402.299622 
	C279.455658,404.253113 279.816833,406.873138 280.067017,409.558289 
	C281.426392,424.147675 292.560150,435.917297 306.683746,437.720215 
	C320.647003,439.502625 334.375092,431.134216 339.491882,417.688293 
	C340.261932,415.664825 340.731781,413.570312 340.956085,411.390686 
	C341.258942,408.447693 341.419189,405.426331 343.450958,402.582977 
z"/>
<path fill="#999999" opacity="1.000000" stroke="none" 
	d="
M545.256348,346.421265 
	C544.606873,342.926788 545.538025,340.411896 548.409119,338.920380 
	C550.735229,337.711975 552.983093,338.421112 554.958801,339.844940 
	C557.117188,341.400421 557.430420,343.709534 556.929626,346.119965 
	C556.399170,348.673004 554.670654,350.153534 552.149475,350.583130 
	C548.924744,351.132599 546.709778,349.710999 545.256348,346.421265 
z"/>
<path fill="#9A9A9A" opacity="1.000000" stroke="none" 
	d="
M204.654602,342.701294 
	C206.179535,339.557770 208.375427,337.952881 211.546417,338.474884 
	C214.017639,338.881683 215.668488,340.624115 216.410446,342.973785 
	C217.185425,345.427979 216.329819,347.567902 214.405228,349.189789 
	C212.471863,350.818970 210.229736,351.261658 207.939529,350.044830 
	C205.164490,348.570343 203.925858,346.226288 204.654602,342.701294 
z"/>
<path fill="#403F3F" opacity="1.000000" stroke="none" 
	d="
M343.264954,402.308350 
	C344.416168,416.897858 339.541199,428.631683 326.450684,436.186218 
	C307.033173,447.391998 280.507538,434.262878 277.790375,412.052765 
	C277.428528,409.094849 277.432983,406.092163 277.275513,402.713867 
	C299.126465,402.311310 320.969727,402.305115 343.264954,402.308350 
z"/>
<path fill="#414040" opacity="1.000000" stroke="none" 
	d="
M483.954987,402.249207 
	C483.916321,419.782318 476.314209,431.604553 462.829285,436.431030 
	C440.544250,444.407196 416.818787,428.141022 418.025970,402.720215 
	C439.840149,402.272797 461.646301,402.243774 483.954987,402.249207 
z"/>
</svg>